<svg width="80" height="80" viewBox="0 0 80 80" fill="none" xmlns="http://www.w3.org/2000/svg">
<g clip-path="url(#clip0_368_425)">
<mask id="mask0_368_425" style="mask-type:luminance" maskUnits="userSpaceOnUse" x="0" y="0" width="80" height="80">
<path d="M80 0H0V80H80V0Z" fill="white"/>
</mask>
<g mask="url(#mask0_368_425)">
<path d="M40.0003 73.3334C21.5903 73.3334 6.66699 58.41 6.66699 40C6.66699 21.59 21.5903 6.66669 40.0003 6.66669C58.4103 6.66669 73.3337 21.59 73.3337 40C73.3337 58.41 58.4103 73.3334 40.0003 73.3334ZM40.0003 66.6667C47.0727 66.6667 53.8557 63.857 58.8567 58.8564C63.8573 53.8554 66.667 47.0724 66.667 40C66.667 32.9276 63.8573 26.1448 58.8567 21.1439C53.8557 16.1429 47.0727 13.3334 40.0003 13.3334C32.9279 13.3334 26.1451 16.1429 21.1442 21.1439C16.1432 26.1448 13.3337 32.9276 13.3337 40C13.3337 47.0724 16.1432 53.8554 21.1442 58.8564C26.1451 63.857 32.9279 66.6667 40.0003 66.6667ZM28.3337 46.6667H46.667C47.109 46.6667 47.533 46.491 47.8457 46.1787C48.158 45.866 48.3337 45.442 48.3337 45C48.3337 44.558 48.158 44.134 47.8457 43.8214C47.533 43.509 47.109 43.3334 46.667 43.3334H33.3337C31.1235 43.3334 29.0039 42.4554 27.4411 40.8927C25.8783 39.3297 25.0003 37.21 25.0003 35C25.0003 32.7899 25.8783 30.6703 27.4411 29.1075C29.0039 27.5447 31.1235 26.6667 33.3337 26.6667H36.667V20H43.3337V26.6667H51.667V33.3334H33.3337C32.8916 33.3334 32.4677 33.509 32.1552 33.8214C31.8426 34.134 31.667 34.558 31.667 35C31.667 35.442 31.8426 35.866 32.1552 36.1787C32.4677 36.491 32.8916 36.6667 33.3337 36.6667H46.667C48.877 36.6667 50.9967 37.5447 52.5597 39.1074C54.1223 40.6704 55.0003 42.79 55.0003 45C55.0003 47.21 54.1223 49.3297 52.5597 50.8927C50.9967 52.4554 48.877 53.3334 46.667 53.3334H43.3337V60H36.667V53.3334H28.3337V46.6667Z" fill="black"/>
</g>
</g>
<defs>
<clipPath id="clip0_368_425">
<rect width="80" height="80" fill="white"/>
</clipPath>
</defs>
</svg>
