<svg width="80" height="80" viewBox="0 0 80 80" fill="none" xmlns="http://www.w3.org/2000/svg">
<g clip-path="url(#clip0_368_431)">
<mask id="mask0_368_431" style="mask-type:luminance" maskUnits="userSpaceOnUse" x="0" y="0" width="80" height="80">
<path d="M80 0H0V80H80V0Z" fill="white"/>
</mask>
<g mask="url(#mask0_368_431)">
<path d="M51.3803 16.6693H70.027C71.8536 16.6693 73.3336 18.1526 73.3336 20.0026V66.6694C73.3336 68.5094 71.817 70.0027 70.027 70.0027H9.97372C9.53749 70.0017 9.10569 69.9147 8.70315 69.7467C8.30065 69.5784 7.93529 69.3324 7.62805 69.0227C7.32082 68.713 7.07779 68.3457 6.91285 67.9417C6.74795 67.538 6.66442 67.1057 6.66705 66.6694V20.0026C6.66705 18.1626 8.18372 16.6693 9.97372 16.6693H28.6204L20.1671 8.21596L24.8804 3.50262L38.047 16.6693H41.9537L55.1203 3.50262L59.8337 8.21596L51.3803 16.6693ZM13.3337 23.336V63.336H66.667V23.336H13.3337Z" fill="black"/>
</g>
</g>
<defs>
<clipPath id="clip0_368_431">
<rect width="80" height="80" fill="white"/>
</clipPath>
</defs>
</svg>
